<?xml version="1.0" encoding="UTF-8"?>
<svg id="Layer_1" data-name="Layer 1" xmlns="http://www.w3.org/2000/svg" viewBox="0 0 1011.21 1011.21">
  <defs>
    <style>
      .cls-1 {
        fill: #35bdc8;
      }

      .cls-2 {
        fill: #091717;
      }

      @media (prefers-color-scheme: dark) {
        .cls-2 {
          fill: #ffffff;
        }
      }
    </style>
  </defs>
  <path class="cls-1" d="M505.6,1011.21C226.81,1011.21,0,784.4,0,505.6S226.81,0,505.6,0s505.61,226.81,505.61,505.6-226.82,505.61-505.61,505.61ZM505.6,76.13c-236.81,0-429.47,192.66-429.47,429.47s192.66,429.47,429.47,429.47,429.47-192.66,429.47-429.47S742.42,76.13,505.6,76.13Z"/>
  <path class="cls-2" d="M588.72,706.38c-23.31,14.33-51.98,21.5-85.98,21.5-55.99,0-101.84-19.39-137.57-58.18-37.26-38.98-55.89-92.29-55.89-159.93s18.82-123.24,56.46-164.51c37.64-41.27,87.42-61.91,149.32-61.91,53.69,0,96.82,13.61,129.4,40.84,32.58,27.23,51.26,61.19,56.03,101.89h-86.85c-6.69-28.85-23.03-49.01-49.01-60.47-14.52-6.31-30.67-9.46-48.43-9.46-34.01,0-61.96,12.85-83.83,38.55-21.88,25.7-32.82,64.34-32.82,115.94s11.85,88.76,35.54,110.35c23.69,21.6,50.63,32.39,80.83,32.39s53.88-8.55,72.8-25.65c18.92-17.1,30.57-39.5,34.97-67.21h-97.73v-70.51h175.98v226.71h-58.47l-8.89-52.74c-17.01,20.06-32.29,34.21-45.86,42.42Z"/>
</svg>